<?xml version="1.0" encoding="UTF-8"?>
<svg xmlns="http://www.w3.org/2000/svg" xmlns:xlink="http://www.w3.org/1999/xlink" viewBox="0 0 362.83 362.83">
  <defs>
    <style>
      .cls-1 {
        filter: url(#drop-shadow-1);
        mix-blend-mode: luminosity;
        opacity: .4;
      }

      .cls-2 {
        fill: url(#linear-gradient);
      }

      .cls-2, .cls-3, .cls-4, .cls-5 {
        stroke-width: 0px;
      }

      .cls-3 {
        fill: url(#linear-gradient-2);
      }

      .cls-6 {
        isolation: isolate;
      }

      .cls-4 {
        fill: #faf8f2;
      }

      .cls-5 {
        fill: #000012;
      }
    </style>
    <filter id="drop-shadow-1" filterUnits="userSpaceOnUse">
      <feOffset dx="0" dy="2.83"/>
      <feGaussianBlur result="blur" stdDeviation="2.83"/>
      <feFlood flood-color="#000" flood-opacity=".44"/>
      <feComposite in2="blur" operator="in"/>
      <feComposite in="SourceGraphic"/>
    </filter>
    <linearGradient id="linear-gradient" x1="104.6" y1="82.2" x2="303.03" y2="280.63" gradientUnits="userSpaceOnUse">
      <stop offset=".3" stop-color="#faf8f2"/>
      <stop offset=".58" stop-color="#919094" stop-opacity=".79"/>
      <stop offset=".87" stop-color="#292937" stop-opacity=".58"/>
      <stop offset="1" stop-color="#000012" stop-opacity=".5"/>
    </linearGradient>
    <linearGradient id="linear-gradient-2" x1="148.3" y1="122.68" x2="265.77" y2="240.15" xlink:href="#linear-gradient"/>
  </defs>
  <g class="cls-6">
    <g id="Layer_2" data-name="Layer 2">
      <g id="Layer_1-2" data-name="Layer 1">
        <g>
          <path class="cls-4" d="M181.42,0C81.22,0,0,81.22,0,181.42s81.22,181.42,181.42,181.42,181.42-81.22,181.42-181.42S281.61,0,181.42,0ZM206.35,80c7.83,0,14.17,6.35,14.17,14.17,0,.21,0,.43-.02.64-.14,3.39-1.48,6.46-3.6,8.82-2.59,2.9-6.36,4.72-10.56,4.72-6.99,0-12.79-5.06-13.95-11.72-.14-.79-.22-1.61-.22-2.46,0-2.52.66-4.88,1.81-6.93,2.43-4.32,7.05-7.24,12.36-7.24ZM181.42,20.76c7.83,0,14.17,6.35,14.17,14.17s-6.35,14.17-14.17,14.17-14.17-6.35-14.17-14.17,6.35-14.17,14.17-14.17ZM156.89,259.09l-3.47,12.95-3.47,12.94-3.47,12.95-3.47,12.94-3.47,12.96-1.29,4.84c-1.2,4.5-5.94,7.11-10.37,5.67-10.74-3.49-20.98-8.08-30.59-13.64-12.2-7.06-23.39-15.68-33.29-25.58-9.9-9.9-18.51-21.08-25.57-33.29-6.96-12.03-12.4-25.04-16.08-38.78-3.55-13.28-5.45-27.23-5.45-41.62h0c0-14.4,1.89-28.35,5.45-41.62,3.66-13.74,9.11-26.76,16.07-38.79,7.06-12.2,15.67-23.39,25.58-33.29,9.9-9.9,21.08-18.52,33.29-25.58,9.61-5.56,19.85-10.15,30.58-13.65,4.43-1.44,9.16,1.17,10.37,5.67l1.3,4.85,3.47,12.95,3.47,12.95,3.47,12.94,3.46,12.95,3.47,12.94,1.47,5.5c1.08,4.04-1.08,8.22-4.98,9.74-3.19,1.24-6.26,2.72-9.18,4.41-5.08,2.94-9.75,6.53-13.87,10.66-4.13,4.13-7.71,8.79-10.66,13.87-2.9,5.01-5.17,10.44-6.7,16.16-1.48,5.53-2.27,11.34-2.27,17.34h0c0,6.01.79,11.82,2.28,17.35,1.52,5.72,3.8,11.14,6.7,16.16,2.94,5.08,6.53,9.74,10.65,13.87,4.13,4.13,8.79,7.71,13.87,10.66,2.93,1.69,6,3.17,9.19,4.42,3.9,1.52,6.06,5.69,4.98,9.73l-1.47,5.49ZM181.42,342.08c-7.83,0-14.17-6.35-14.17-14.17s6.35-14.17,14.17-14.17,14.17,6.35,14.17,14.17-6.35,14.17-14.17,14.17ZM206.35,282.83c-5.31,0-9.94-2.92-12.36-7.25-1.15-2.05-1.81-4.42-1.81-6.93,0-.84.07-1.66.22-2.46,1.16-6.66,6.97-11.72,13.95-11.72,4.19,0,7.96,1.82,10.55,4.71,2.12,2.36,3.46,5.44,3.6,8.83.01.21.02.43.02.64,0,7.82-6.34,14.17-14.17,14.17ZM223.28,181.42c0,3.75-.49,7.38-1.42,10.84-.95,3.58-2.37,6.97-4.19,10.1-1.83,3.18-4.08,6.09-6.65,8.66-2.57,2.58-5.49,4.82-8.66,6.66-3.13,1.81-6.52,3.23-10.1,4.18-3.46.93-7.09,1.42-10.83,1.42s-7.38-.49-10.83-1.42c-3.58-.95-6.97-2.37-10.1-4.18-3.18-1.84-6.09-4.08-8.67-6.66-2.57-2.57-4.81-5.49-6.65-8.66-1.81-3.13-3.24-6.52-4.18-10.1-.94-3.46-1.43-7.09-1.43-10.84h0c0-3.75.49-7.38,1.42-10.83.95-3.58,2.37-6.97,4.18-10.1,1.84-3.18,4.08-6.09,6.66-8.67,2.58-2.58,5.5-4.82,8.67-6.65,3.13-1.82,6.52-3.24,10.1-4.19,3.46-.93,7.09-1.42,10.83-1.42s7.38.49,10.83,1.42c3.58.95,6.97,2.37,10.1,4.19,3.18,1.83,6.09,4.08,8.66,6.66,2.59,2.57,4.83,5.49,6.66,8.66,1.82,3.13,3.24,6.52,4.18,10.1.93,3.46,1.42,7.08,1.42,10.83h0ZM270.38,195.59c-7.83,0-14.17-6.35-14.17-14.17s6.35-14.17,14.17-14.17,14.17,6.35,14.17,14.17-6.35,14.17-14.17,14.17ZM327.06,195.59c-7.83,0-14.17-6.35-14.17-14.17s6.35-14.17,14.17-14.17,14.17,6.35,14.17,14.17-6.35,14.17-14.17,14.17Z"/>
          <g>
            <path class="cls-5" d="M336.45,162.78h.01c-4.11-34.55-20-67.18-44.72-91.86-24.56-24.52-56.95-40.3-91.26-44.48-3.26-7.3-10.55-12.39-19.06-12.39-11.54,0-20.89,9.35-20.89,20.89s9.35,20.89,20.89,20.89c6.9,0,13.01-3.35,16.81-8.51,29.57,3.67,57.47,17.31,78.67,38.46,21.12,21.08,34.78,48.85,38.55,78.3-5.59,3.74-9.28,10.11-9.28,17.35s3.69,13.6,9.28,17.35c-3.79,29.56-17.53,57.4-38.78,78.52-21.17,21.03-48.97,34.57-78.44,38.23-3.8-5.16-9.91-8.51-16.81-8.51-11.54,0-20.89,9.35-20.89,20.89s9.35,20.89,20.89,20.89c8.51,0,15.8-5.1,19.06-12.4,34.19-4.17,66.45-19.83,90.99-44.21,24.88-24.72,40.86-57.44,44.99-92.13,6.81-3.44,11.49-10.48,11.49-18.64s-4.69-15.21-11.51-18.64ZM181.42,49.1c-7.83,0-14.17-6.35-14.17-14.17s6.35-14.17,14.17-14.17,14.17,6.35,14.17,14.17-6.35,14.17-14.17,14.17ZM181.42,342.08c-7.83,0-14.17-6.35-14.17-14.17s6.35-14.17,14.17-14.17,14.17,6.35,14.17,14.17-6.35,14.17-14.17,14.17ZM327.06,195.59c-7.83,0-14.17-6.35-14.17-14.17s6.35-14.17,14.17-14.17,14.17,6.35,14.17,14.17-6.35,14.17-14.17,14.17Z"/>
            <path class="cls-5" d="M219.19,252.19c-3.54-2.77-8-4.43-12.84-4.43-10.3,0-18.86,7.46-20.57,17.27-.21,1.18-.32,2.39-.32,3.63,0,3.7.97,7.19,2.67,10.21,3.57,6.37,10.39,10.68,18.22,10.68,10.47,0,19.11-7.71,20.63-17.75,28.29-14.29,48.47-41.29,54.05-72.41h-.04c6.14-3.64,10.28-10.31,10.28-17.97s-4.14-14.34-10.29-17.97h.06c-5.58-31.11-25.77-58.14-54.05-72.42-1.52-10.04-10.16-17.75-20.63-17.75-7.83,0-14.64,4.3-18.22,10.67-1.7,3.02-2.67,6.51-2.67,10.22,0,1.24.11,2.45.32,3.62,1.71,9.82,10.27,17.28,20.57,17.28,4.84,0,9.3-1.66,12.84-4.43,20.46,10.95,35.29,30.4,40.42,52.9-6.07,3.65-10.14,10.28-10.14,17.88s4.07,14.22,10.13,17.87c-5.14,22.51-19.96,41.94-40.43,52.89ZM206.35,282.83c-5.31,0-9.94-2.92-12.36-7.25-1.15-2.05-1.81-4.42-1.81-6.93,0-.84.07-1.66.22-2.46,1.16-6.65,6.97-11.72,13.95-11.72,4.19,0,7.96,1.83,10.55,4.71,2.12,2.36,3.46,5.44,3.6,8.83.01.21.02.43.02.64,0,7.82-6.34,14.17-14.17,14.17ZM206.35,108.35c-6.99,0-12.79-5.06-13.95-11.72-.14-.79-.22-1.61-.22-2.46,0-2.52.66-4.88,1.81-6.93,2.43-4.32,7.05-7.24,12.36-7.24,7.83,0,14.17,6.35,14.17,14.17,0,.21,0,.43-.02.64-.14,3.39-1.48,6.46-3.6,8.82-2.59,2.9-6.36,4.72-10.56,4.72ZM256.2,181.42c0-7.83,6.35-14.17,14.17-14.17s14.17,6.35,14.17,14.17-6.35,14.17-14.17,14.17-14.17-6.35-14.17-14.17Z"/>
          </g>
          <g class="cls-1">
            <path class="cls-2" d="M336.45,162.78h.01c-4.11-34.55-20-67.18-44.72-91.86-24.56-24.52-56.95-40.3-91.26-44.48-3.26-7.3-10.55-12.39-19.06-12.39-11.54,0-20.89,9.35-20.89,20.89s9.35,20.89,20.89,20.89c6.9,0,13.01-3.35,16.81-8.51,29.57,3.67,57.47,17.31,78.67,38.46,21.12,21.08,34.78,48.85,38.55,78.3-5.59,3.74-9.28,10.11-9.28,17.35s3.69,13.6,9.28,17.35c-3.79,29.56-17.53,57.4-38.78,78.52-21.17,21.03-48.97,34.57-78.44,38.23-3.8-5.16-9.91-8.51-16.81-8.51-11.54,0-20.89,9.35-20.89,20.89s9.35,20.89,20.89,20.89c8.51,0,15.8-5.1,19.06-12.4,34.19-4.17,66.45-19.83,90.99-44.21,24.88-24.72,40.86-57.44,44.99-92.13,6.81-3.44,11.49-10.48,11.49-18.64s-4.69-15.21-11.51-18.64ZM181.42,49.1c-7.83,0-14.17-6.35-14.17-14.17s6.35-14.17,14.17-14.17,14.17,6.35,14.17,14.17-6.35,14.17-14.17,14.17ZM181.42,342.08c-7.83,0-14.17-6.35-14.17-14.17s6.35-14.17,14.17-14.17,14.17,6.35,14.17,14.17-6.35,14.17-14.17,14.17ZM327.06,195.59c-7.83,0-14.17-6.35-14.17-14.17s6.35-14.17,14.17-14.17,14.17,6.35,14.17,14.17-6.35,14.17-14.17,14.17Z"/>
            <path class="cls-3" d="M219.19,252.19c-3.54-2.77-8-4.43-12.84-4.43-10.3,0-18.86,7.46-20.57,17.27-.21,1.18-.32,2.39-.32,3.63,0,3.7.97,7.19,2.67,10.21,3.57,6.37,10.39,10.68,18.22,10.68,10.47,0,19.11-7.71,20.63-17.75,28.29-14.29,48.47-41.29,54.05-72.41h-.04c6.14-3.64,10.28-10.31,10.28-17.97s-4.14-14.34-10.29-17.97h.06c-5.58-31.11-25.77-58.14-54.05-72.42-1.52-10.04-10.16-17.75-20.63-17.75-7.83,0-14.64,4.3-18.22,10.67-1.7,3.02-2.67,6.51-2.67,10.22,0,1.24.11,2.45.32,3.62,1.71,9.82,10.27,17.28,20.57,17.28,4.84,0,9.3-1.66,12.84-4.43,20.46,10.95,35.29,30.4,40.42,52.9-6.07,3.65-10.14,10.28-10.14,17.88s4.07,14.22,10.13,17.87c-5.14,22.51-19.96,41.94-40.43,52.89ZM206.35,282.83c-5.31,0-9.94-2.92-12.36-7.25-1.15-2.05-1.81-4.42-1.81-6.93,0-.84.07-1.66.22-2.46,1.16-6.65,6.97-11.72,13.95-11.72,4.19,0,7.96,1.83,10.55,4.71,2.12,2.36,3.46,5.44,3.6,8.83.01.21.02.43.02.64,0,7.82-6.34,14.17-14.17,14.17ZM206.35,108.35c-6.99,0-12.79-5.06-13.95-11.72-.14-.79-.22-1.61-.22-2.46,0-2.52.66-4.88,1.81-6.93,2.43-4.32,7.05-7.24,12.36-7.24,7.83,0,14.17,6.35,14.17,14.17,0,.21,0,.43-.02.64-.14,3.39-1.48,6.46-3.6,8.82-2.59,2.9-6.36,4.72-10.56,4.72ZM256.2,181.42c0-7.83,6.35-14.17,14.17-14.17s14.17,6.35,14.17,14.17-6.35,14.17-14.17,14.17-14.17-6.35-14.17-14.17Z"/>
          </g>
        </g>
      </g>
    </g>
  </g>
</svg>