<?xml version="1.0" encoding="UTF-8"?>
<svg id="Layer_2" data-name="Layer 2" xmlns="http://www.w3.org/2000/svg" viewBox="0 0 532.91 93.93">
  <defs>
    <style>
      .cls-1 {
        fill: #faf8f2;
      }

      .cls-1, .cls-2 {
        stroke-width: 0px;
      }

      .cls-2 {
        fill: #ff0061;
      }
    </style>
  </defs>
  <g id="Layer_1-2" data-name="Layer 1">
    <g>
      <g>
        <path class="cls-2" d="M88.18,93.93V0h22.49C117.24,0,123.38,1.22,129.08,3.66c5.7,2.44,10.72,5.81,15.07,10.13,4.35,4.32,7.74,9.3,10.17,14.96,2.43,5.66,3.65,11.73,3.65,18.21s-1.22,12.56-3.65,18.21c-2.43,5.66-5.82,10.65-10.17,14.96-4.35,4.32-9.37,7.69-15.07,10.13-5.7,2.44-11.84,3.66-18.41,3.66h-22.49ZM93.99,88.16h16.68c5.77,0,11.16-1.06,16.18-3.19,5.02-2.12,9.43-5.08,13.21-8.86,3.78-3.78,6.75-8.16,8.89-13.15,2.14-4.99,3.21-10.32,3.21-16s-1.07-11.01-3.21-16c-2.14-4.99-5.11-9.37-8.92-13.15-3.81-3.78-8.21-6.73-13.21-8.86-5-2.12-10.38-3.19-16.15-3.19h-16.68v82.39Z"/>
        <path class="cls-2" d="M182.47,93.93V0h22.49C211.54,0,217.67,1.22,223.37,3.66c5.7,2.44,10.72,5.81,15.07,10.13,4.35,4.32,7.74,9.3,10.17,14.96,2.43,5.66,3.65,11.73,3.65,18.21s-1.22,12.56-3.65,18.21c-2.43,5.66-5.82,10.65-10.17,14.96-4.35,4.32-9.37,7.69-15.07,10.13-5.7,2.44-11.84,3.66-18.41,3.66h-22.49ZM188.28,88.16h16.68c5.77,0,11.16-1.06,16.18-3.19,5.02-2.12,9.43-5.08,13.21-8.86,3.78-3.78,6.75-8.16,8.89-13.15,2.14-4.99,3.21-10.32,3.21-16s-1.07-11.01-3.21-16c-2.14-4.99-5.11-9.37-8.92-13.15-3.81-3.78-8.21-6.73-13.21-8.86-5-2.12-10.38-3.19-16.15-3.19h-16.68v82.39Z"/>
        <path class="cls-2" d="M47.3,88.16c-5.77,0-11.16-1.06-16.18-3.19-5.02-2.12-9.43-5.08-13.21-8.86-3.78-3.78-6.75-8.16-8.89-13.15-2.14-4.99-3.21-10.32-3.21-16s1.07-11.01,3.21-16c2.14-4.99,5.11-9.37,8.92-13.15,3.81-3.78,8.21-6.73,13.21-8.86,5-2.12,10.38-3.19,16.15-3.19h13.76V0h-13.76C40.72,0,34.58,1.22,28.88,3.66c-5.7,2.44-10.72,5.81-15.07,10.13-4.35,4.32-7.74,9.3-10.17,14.96-2.43,5.66-3.65,11.73-3.65,18.21s1.22,12.56,3.65,18.21c2.43,5.66,5.82,10.65,10.17,14.96,4.35,4.32,9.37,7.69,15.07,10.13,5.7,2.44,11.84,3.66,18.41,3.66h13.76v-5.77h-13.76Z"/>
      </g>
      <path class="cls-2" d="M529.27,28.75c-2.43-5.66-5.82-10.64-10.17-14.96-4.35-4.32-9.37-7.69-15.07-10.13-5.7-2.44-11.84-3.66-18.41-3.66h-219.16v93.93h219.16c6.58,0,12.71-1.22,18.41-3.66,5.7-2.44,10.72-5.81,15.07-10.13,4.35-4.32,7.74-9.3,10.17-14.96,2.43-5.66,3.65-11.73,3.65-18.21s-1.22-12.56-3.65-18.21Z"/>
      <g>
        <path class="cls-1" d="M301.17,68.5c-2.33,0-4.57-.37-6.7-1.11-2.14-.74-4-1.81-5.61-3.2-1.6-1.39-2.76-3.06-3.47-5l8.36-3.09c.2.57.64,1.13,1.32,1.66.68.53,1.55.97,2.6,1.32,1.05.35,2.21.52,3.5.52,1.19,0,2.3-.17,3.35-.52,1.05-.35,1.9-.83,2.55-1.44.65-.61.98-1.32.98-2.14s-.34-1.52-1.02-2.06c-.68-.54-1.55-.98-2.61-1.3-1.06-.33-2.14-.57-3.25-.73-3.01-.43-5.7-1.15-8.08-2.15-2.38-1-4.26-2.38-5.64-4.14-1.37-1.76-2.06-3.99-2.06-6.7s.73-4.86,2.2-6.81c1.46-1.95,3.4-3.47,5.8-4.55,2.4-1.09,5-1.63,7.79-1.63,2.33,0,4.57.37,6.72,1.11,2.15.74,4.02,1.81,5.62,3.22,1.6,1.4,2.75,3.08,3.44,5.04l-8.36,3.03c-.2-.57-.64-1.12-1.32-1.65-.68-.52-1.55-.95-2.6-1.29-1.05-.34-2.22-.5-3.5-.5-1.15-.02-2.24.15-3.29.5-1.05.36-1.91.84-2.58,1.45-.67.61-1.01,1.31-1.01,2.08,0,1.07.32,1.86.95,2.39.63.52,1.47.9,2.51,1.11,1.04.22,2.18.42,3.43.59,2.85.42,5.47,1.16,7.86,2.22,2.39,1.07,4.31,2.49,5.75,4.27,1.44,1.78,2.17,3.94,2.17,6.5s-.73,4.86-2.18,6.81-3.38,3.47-5.77,4.55c-2.39,1.09-5,1.63-7.83,1.63Z"/>
        <path class="cls-1" d="M358.37,26.2v8.9h-11.86v32.63h-8.9v-32.63h-11.86v-8.9h32.63Z"/>
        <path class="cls-1" d="M377.93,26.2h10.03l15.07,41.53h-9.43l-2.37-6.53h-16.55l-2.37,6.53h-9.43l15.07-41.53ZM377.93,52.3h10.03l-5.04-13.76-4.98,13.76Z"/>
        <path class="cls-1" d="M408.22,67.73l8.07-41.53h7.59l9.31,24.5,9.31-24.5h7.59l8.07,41.53h-9.08l-4.33-22.42-8.48,22.42h-6.17l-8.48-22.42-4.33,22.42h-9.08Z"/>
        <path class="cls-1" d="M469.51,67.73V26.2h15.66c2.27,0,4.33.58,6.18,1.73,1.85,1.16,3.32,2.7,4.4,4.63,1.09,1.93,1.63,4.04,1.63,6.33s-.56,4.46-1.68,6.38c-1.12,1.92-2.61,3.45-4.46,4.6-1.86,1.15-3.89,1.72-6.08,1.72h-6.76v16.14h-8.9ZM478.41,42.69h5.75c.79,0,1.51-.2,2.17-.61.65-.4,1.18-.94,1.57-1.62.4-.67.59-1.41.59-2.22s-.2-1.55-.59-2.22c-.4-.67-.92-1.21-1.57-1.62-.65-.4-1.37-.61-2.17-.61h-5.75v8.9Z"/>
      </g>
    </g>
  </g>
</svg>