<?xml version="1.0" encoding="UTF-8"?>
<svg id="Layer_2" data-name="Layer 2" xmlns="http://www.w3.org/2000/svg" viewBox="0 0 907.09 159.87">
  <defs>
    <style>
      .cls-1 {
        fill: #faf8f2;
        stroke-width: 0px;
      }
    </style>
  </defs>
  <g id="Layer_1-2" data-name="Layer 1">
    <g>
      <path class="cls-1" d="M245.35,23.47c-7.4-7.35-15.95-13.09-25.65-17.24-9.7-4.15-20.15-6.22-31.34-6.22h-38.27v159.87h38.27c11.19,0,21.64-2.07,31.34-6.22,9.7-4.15,18.25-9.9,25.65-17.24,7.4-7.35,13.17-15.83,17.31-25.47,4.14-9.63,6.21-19.96,6.21-31s-2.07-21.37-6.21-31c-4.14-9.63-9.91-18.12-17.31-25.47ZM253.51,107.17c-3.64,8.49-8.68,15.95-15.12,22.38-6.44,6.43-13.94,11.46-22.48,15.07-8.55,3.62-17.73,5.42-27.54,5.42h-28.38V9.82h28.38c9.81,0,18.98,1.81,27.49,5.42,8.51,3.62,16,8.64,22.48,15.07,6.48,6.43,11.54,13.89,15.18,22.38,3.64,8.49,5.46,17.57,5.46,27.24s-1.82,18.75-5.46,27.24Z"/>
      <path class="cls-1" d="M405.85,23.47c-7.4-7.35-15.95-13.09-25.65-17.24-9.7-4.15-20.15-6.22-31.34-6.22h-38.27v159.87h38.27c11.19,0,21.64-2.07,31.34-6.22,9.7-4.15,18.25-9.9,25.65-17.24,7.4-7.35,13.17-15.83,17.31-25.47,4.14-9.63,6.21-19.96,6.21-31s-2.07-21.37-6.21-31c-4.14-9.63-9.91-18.12-17.31-25.47ZM414.02,107.17c-3.64,8.49-8.68,15.95-15.12,22.38-6.44,6.43-13.94,11.46-22.48,15.07-8.55,3.62-17.73,5.42-27.54,5.42h-28.38V9.82h28.38c9.81,0,18.98,1.81,27.49,5.42,8.51,3.62,16,8.64,22.48,15.07,6.48,6.43,11.54,13.89,15.18,22.38,3.64,8.49,5.46,17.57,5.46,27.24s-1.82,18.75-5.46,27.24Z"/>
      <path class="cls-1" d="M49.17,6.22c-9.7,4.15-18.25,9.9-25.65,17.24-7.4,7.35-13.17,15.84-17.31,25.46C2.07,58.56,0,68.9,0,79.94s2.07,21.37,6.21,31c4.14,9.63,9.91,18.12,17.31,25.47,7.4,7.35,15.95,13.1,25.65,17.24,9.7,4.15,20.15,6.22,31.34,6.22h23.42v-9.82h-23.42c-9.81,0-18.99-1.81-27.54-5.42-8.55-3.61-16.04-8.64-22.48-15.07-6.44-6.43-11.48-13.89-15.12-22.38-3.64-8.49-5.46-17.57-5.46-27.24s1.82-18.75,5.46-27.24c3.64-8.49,8.7-15.95,15.18-22.38,6.48-6.43,13.97-11.46,22.48-15.07,8.51-3.62,17.67-5.42,27.49-5.42h23.42V0h-23.42C69.31,0,58.87,2.07,49.17,6.22Z"/>
      <path class="cls-1" d="M827.8,58.55c-1.11-.69-2.34-1.03-3.69-1.03h-9.79v15.15h9.79c1.35,0,2.57-.34,3.69-1.04,1.11-.69,2-1.61,2.68-2.75.67-1.14,1.01-2.41,1.01-3.79s-.34-2.64-1.01-3.79c-.67-1.14-1.57-2.06-2.68-2.75Z"/>
      <polygon class="cls-1" points="643.28 89.02 660.35 89.02 651.77 65.6 643.28 89.02"/>
      <path class="cls-1" d="M900.88,48.93c-4.14-9.63-9.91-18.12-17.31-25.47-7.4-7.35-15.95-13.09-25.65-17.24-9.7-4.15-20.15-6.22-31.34-6.22h-373.04v159.87h373.04c11.19,0,21.64-2.07,31.34-6.22,9.7-4.15,18.25-9.9,25.65-17.24,7.4-7.35,13.17-15.83,17.31-25.47,4.14-9.63,6.21-19.96,6.21-31s-2.07-21.37-6.21-31ZM502.53,69.46c1.08.89,2.5,1.52,4.27,1.89,1.77.37,3.71.71,5.83,1.01,4.85.71,9.31,1.97,13.38,3.79,4.07,1.82,7.34,4.24,9.79,7.27,2.46,3.03,3.69,6.71,3.69,11.06s-1.24,8.27-3.71,11.59c-2.47,3.32-5.75,5.9-9.82,7.75-4.07,1.85-8.52,2.78-13.33,2.78-3.97,0-7.78-.63-11.41-1.89-3.64-1.26-6.82-3.08-9.54-5.45-2.73-2.37-4.7-5.21-5.91-8.51l14.24-5.25c.34.98,1.09,1.92,2.25,2.83,1.16.91,2.63,1.66,4.42,2.25,1.78.59,3.77.88,5.96.88,2.02,0,3.92-.29,5.71-.88,1.78-.59,3.23-1.41,4.34-2.45,1.11-1.04,1.67-2.25,1.67-3.63s-.58-2.58-1.74-3.51c-1.16-.93-2.64-1.67-4.44-2.22-1.8-.56-3.64-.97-5.53-1.24-5.12-.74-9.7-1.96-13.76-3.66-4.06-1.7-7.25-4.05-9.59-7.04-2.34-3-3.51-6.8-3.51-11.41s1.24-8.27,3.74-11.59c2.49-3.32,5.78-5.9,9.87-7.75,4.09-1.85,8.51-2.78,13.25-2.78,3.97,0,7.78.63,11.44,1.89,3.65,1.26,6.84,3.09,9.57,5.48,2.73,2.39,4.68,5.25,5.86,8.58l-14.24,5.15c-.34-.98-1.09-1.91-2.25-2.8-1.16-.89-2.63-1.62-4.42-2.2-1.78-.57-3.77-.86-5.96-.86-1.95-.03-3.82.25-5.6.86-1.78.61-3.25,1.43-4.39,2.47-1.14,1.04-1.72,2.22-1.72,3.53,0,1.82.54,3.17,1.62,4.06ZM609.99,59.74h-20.19v55.54h-15.15v-55.54h-20.2v-15.15h55.54v15.15ZM669.94,115.28l-4.04-11.11h-28.17l-4.04,11.11h-16.06l25.65-70.68h17.06l25.65,70.68h-16.05ZM764.42,115.28l-7.37-38.17-14.44,38.17h-10.5l-14.44-38.17-7.37,38.17h-15.45l13.73-70.68h12.92l15.85,41.7,15.85-41.7h12.92l13.73,70.68h-15.45ZM843.77,77.06c-1.9,3.26-4.43,5.87-7.6,7.83-3.16,1.95-6.61,2.93-10.35,2.93h-11.51v27.46h-15.15V44.6h26.66c3.87,0,7.38.98,10.53,2.95,3.15,1.97,5.65,4.59,7.5,7.88,1.85,3.28,2.78,6.88,2.78,10.78s-.95,7.59-2.85,10.85Z"/>
    </g>
  </g>
</svg>