<?xml version="1.0" encoding="UTF-8"?>
<svg id="cdd-icon-search" data-name="cdd-icon-search" xmlns="http://www.w3.org/2000/svg" viewBox="0 0 90.71 90.71">

      <path class="svg-hidden-circle" d="M89.09,81.07l-8.2-8.2-8.02,8.02,8.2,8.2c2.17,2.17,5.68,2.17,7.84,0l.18-.18c2.17-2.17,2.17-5.68,0-7.84Z"/>
      <path class="svg-path-solid" d="M19.16,19.16c-7.19,7.19-10.04,15.99-6.37,19.66s10.16-1.5,17.34-8.69c7.19-7.19,12.36-13.67,8.69-17.34s-12.48-.82-19.66,6.37Z"/>
      <path class="svg-path-solid" d="M74.53,60.41c-1.93-1.93-6.65-.33-10.55,3.57-3.9,3.9-5.5,8.62-3.57,10.55,1.93,1.93,6.65.33,10.55-3.57,3.9-3.9,5.5-8.62,3.57-10.55Z"/>

</svg>