<?xml version="1.0" encoding="UTF-8"?>
<svg id="Layer_2" data-name="Layer 2" xmlns="http://www.w3.org/2000/svg" viewBox="0 0 90.71 90.71">
  <defs>
    <style>
      .cls-1 {
        fill: none;
      }

      .cls-1, .cls-2 {
        stroke-width: 0px;
      }

      .cls-2 {
        fill: #faf8f2;
      }
    </style>
  </defs>
  <g id="Layer_1-2" data-name="Layer 1">
    <g>
      <rect class="cls-1" x="0" width="90.71" height="90.71"/>
      <path class="cls-2" d="M84.01,0H6.7C3,0,0,3,0,6.7v77.31c0,3.7,3,6.7,6.7,6.7h77.32c3.7,0,6.7-3,6.7-6.7V6.7C90.71,3,87.71,0,84.01,0ZM27.04,77.28h-13.64v-43.32h13.64v43.32ZM20.22,27.95c-4.34,0-7.86-3.3-7.86-7.83s3.52-7.83,7.86-7.83,7.86,3.31,7.86,7.83-3.52,7.83-7.86,7.83ZM77.31,77.31h-13.64v-23.66c0-6.98-2.97-9.13-6.8-9.13-4.05,0-8.01,3.05-8.01,9.31v23.49h-13.64v-43.32h13.11v6h.17c1.32-2.67,5.93-7.22,12.96-7.22,7.61,0,15.83,4.51,15.83,17.75v26.79Z"/>
    </g>
  </g>
</svg>