<?xml version="1.0" encoding="UTF-8"?>
<svg id="logo-x" data-name="logo-x" xmlns="http://www.w3.org/2000/svg" viewBox="0 0 90.71 90.71">
      <rect class="cls-1" x="19.84" y="19.84" width="51.02" height="51.02"/>
      <path class="svg-path-solid" d="M49.56,41.45l18.59-21.61h-4.4l-16.14,18.76-12.89-18.76h-14.87l19.49,28.37-19.49,22.66h4.4l17.04-19.81,13.61,19.81h14.87l-20.21-29.42h0ZM43.52,48.46l-1.97-2.82-15.71-22.48h6.77l12.68,18.14,1.97,2.82,16.48,23.58h-6.77l-13.45-19.24h0Z"/>
    <path class="svg-hidden-circle" d="M90.71,45.36c0,21.1-14.41,38.83-33.92,43.89-3.65.96-7.49,1.46-11.44,1.46s-7.78-.5-11.43-1.46C14.41,84.19,0,66.46,0,45.36,0,20.31,20.31,0,45.35,0s45.36,20.31,45.36,45.36Z"/>
</svg>