<?xml version="1.0" encoding="UTF-8"?>
<svg id="logo-in" data-name="logo-in" xmlns="http://www.w3.org/2000/svg" viewBox="0 0 90.71 90.71">

      <rect class="cls-1" x="19.84" y="19.84" width="51.02" height="51.02"/>
      <path class="svg-path-solid" d="M67.1,19.84H23.61c-2.08,0-3.77,1.69-3.77,3.77v43.49c0,2.08,1.69,3.77,3.77,3.77h43.49c2.08,0,3.77-1.69,3.77-3.77V23.61c0-2.08-1.69-3.77-3.77-3.77ZM35.05,63.31h-7.67v-24.37h7.67v24.37ZM31.22,35.57c-2.44,0-4.42-1.86-4.42-4.4s1.98-4.4,4.42-4.4,4.42,1.86,4.42,4.4-1.98,4.4-4.42,4.4ZM63.33,63.33h-7.67v-13.31c0-3.93-1.67-5.14-3.82-5.14-2.28,0-4.51,1.71-4.51,5.24v13.21h-7.67v-24.37h7.38v3.38h.1c.74-1.5,3.33-4.06,7.29-4.06,4.28,0,8.91,2.54,8.91,9.98v15.07Z"/>
    <path class="svg-hidden-circle" d="M90.71,45.36c0,21.1-14.41,38.83-33.92,43.89-3.65.96-7.49,1.46-11.44,1.46s-7.78-.5-11.43-1.46C14.41,84.19,0,66.46,0,45.36,0,20.31,20.31,0,45.35,0s45.36,20.31,45.36,45.36Z"/>
</svg>